 <svg  version="1.0" xmlns="http://www.w3.org/2000/svg"  width="300.000000pt" height="303.000000pt" viewBox="0 0 300.000000 303.000000"  preserveAspectRatio="xMidYMid meet">  <g transform="translate(0.000000,303.000000) scale(0.100000,-0.100000)" fill="#fffcf7" stroke="none"> <path d="M1145 2821 l-360 -207 -3 -419 c-1 -231 0 -426 3 -434 4 -9 19 9 43 49 93 158 290 336 466 422 l46 22 0 57 c0 71 20 127 67 191 30 42 34 52 21 59 -8 4 -26 17 -39 28 l-24 19 45 13 c73 20 196 15 263 -10 81 -32 167 -114 211 -202 19 -38 51 -84 70 -103 20 -18 36 -41 36 -50 0 -13 -9 -15 -58 -10 -59 7 -102 -5 -102 -28 0 -6 12 -35 26 -65 36 -73 45 -211 19 -299 -26 -90 -73 -171 -140 -239 -70 -70 -124 -110 -235 -169 l-79 -42 42 -21 42 -20 357 196 357 196 0 430 0 430 -317 183 c-175 100 -335 193 -357 206 l-40 23 -360 -206z"/> <path d="M362 1469 l-362 -200 0 -424 0 -423 354 -206 c195 -113 360 -206 366 -206 11 0 210 98 210 104 0 33 -104 254 -164 348 -18 29 -50 86 -70 126 -42 83 -92 143 -139 165 -18 9 -74 25 -124 36 -50 11 -117 33 -150 49 -124 63 -219 213 -187 296 11 30 41 16 80 -36 34 -46 45 -53 77 -56 21 -2 66 6 100 17 34 12 94 28 132 36 62 13 77 13 133 -1 73 -18 80 -15 113 53 23 47 45 62 131 84 68 17 98 50 98 108 0 54 18 85 46 79 33 -6 48 -55 48 -158 1 -119 -16 -162 -125 -307 -89 -118 -108 -173 -89 -257 27 -122 72 -167 226 -231 66 -27 150 -64 187 -82 l68 -34 62 34 62 34 0 427 0 428 -285 157 c-157 86 -319 176 -360 198 l-76 42 -362 -200z"/> <path d="M1910 1471 l-355 -198 0 -427 0 -427 354 -205 c194 -113 359 -204 366 -202 6 2 172 95 368 207 l357 204 -2 425 -3 425 -360 198 c-198 109 -362 198 -365 198 -3 0 -165 -89 -360 -198z m536 -155 c68 -70 88 -132 82 -255 -5 -104 -21 -140 -71 -164 -45 -22 -81 -14 -110 25 -22 29 -23 44 -12 170 8 84 7 88 -24 152 -17 35 -31 71 -31 80 0 27 30 46 73 46 36 0 47 -6 93 -54z m-280 36 c29 -19 36 -55 29 -148 -6 -81 -4 -103 15 -165 28 -89 23 -133 -20 -171 -50 -46 -106 -30 -134 36 -24 57 -46 172 -46 238 0 68 31 152 72 196 21 22 62 29 84 14z m-242 -412 c60 -57 108 -146 110 -203 2 -74 -87 -114 -147 -67 -54 43 -101 192 -83 264 7 30 32 56 52 56 8 0 39 -22 68 -50z m776 30 c26 -26 34 -61 27 -125 -6 -55 -35 -123 -67 -155 -29 -29 -67 -25 -101 9 -25 25 -29 37 -29 83 0 92 70 208 125 208 14 0 34 -9 45 -20z m-352 -229 c22 -16 43 -35 47 -41 4 -6 29 -29 57 -50 44 -36 56 -40 105 -40 53 0 91 -12 105 -34 13 -20 8 -97 -8 -132 -22 -46 -61 -72 -129 -86 -47 -9 -68 -8 -130 7 -73 18 -73 18 -126 -3 -101 -43 -197 -39 -269 10 -112 76 -96 183 31 211 51 12 55 15 86 72 49 88 82 115 142 115 37 0 57 -7 89 -29z"/> </g> </svg> 